<svg xmlns="http://www.w3.org/2000/svg" xmlns:xlink="http://www.w3.org/1999/xlink" viewBox="0 0 140.95 128.83"><defs><style>.cls-1,.cls-5{fill:none;}.cls-2{clip-path:url(#clip-path);}.cls-3{fill:#fff;}.cls-4{font-size:15px;fill:#e1523d;font-family:OpenSans-Bold, Open Sans;font-weight:700;}.cls-5{stroke:#e1523d;stroke-miterlimit:10;stroke-width:2px;}</style><clipPath id="clip-path" transform="translate(-16.05 -2.17)"><rect class="cls-1" width="163" height="101"/></clipPath></defs><title>Recurso 40</title><g id="Capa_2" data-name="Capa 2"><g id="Capa_1-2" data-name="Capa 1"><g class="cls-2"><path class="cls-3" d="M16.48,68.66c-1.3-5.06.46-12.25,3.92-16l43-46.39c3.46-3.74,10-5.19,14.62-3.23l70.68,30.24c4.58,2,8.33,7.85,8.33,13.09l0,58.46c0,5.24-4,10.1-8.91,10.8L41.79,130.91c-4.9.71-10-2.85-11.27-7.91Z" transform="translate(-16.05 -2.17)"/><text class="cls-4" transform="translate(16.5 80.88) rotate(0.35)">CONTÁCTANOS</text><path class="cls-5" d="M69.72,44.37,58.07,44.3a3,3,0,0,0-3,2.93L55,57A3,3,0,0,0,58,60l1.88,0a.36.36,0,0,1,.36.36l0,3.85a.35.35,0,0,0,.61.26l4.39-4.34a.39.39,0,0,1,.25-.1l7.89,0a3,3,0,0,0,3-2.94" transform="translate(-16.05 -2.17)"/><line class="cls-5" x1="47.83" y1="47.75" x2="56.82" y2="47.81"/><line class="cls-5" x1="44.61" y1="51.95" x2="50.09" y2="51.98"/><path class="cls-5" d="M77.54,29.8l24,.14a4.63,4.63,0,0,1,4.6,4.66L106.08,50a4.64,4.64,0,0,1-4.66,4.6l-2.94,0a.56.56,0,0,0-.56.56l0,6a.56.56,0,0,1-1,.39l-6.79-6.88a.59.59,0,0,0-.4-.16L77.39,54.4a4.62,4.62,0,0,1-4.6-4.65l.09-15.35A4.63,4.63,0,0,1,77.54,29.8Z" transform="translate(-16.05 -2.17)"/><path class="cls-5" d="M83.48,37.46a2.31,2.31,0,0,0,3.79,0" transform="translate(-16.05 -2.17)"/><path class="cls-5" d="M81.2,44.19c1.32,2.52,4.48,4.32,8.24,4.34s7-1.74,8.3-4.24" transform="translate(-16.05 -2.17)"/><path class="cls-5" d="M91.75,37.51a2.31,2.31,0,0,0,3.79,0" transform="translate(-16.05 -2.17)"/><polyline class="cls-5" points="43.32 34.93 44.87 36.5 47.99 33.41"/><line class="cls-5" x1="48.6" y1="36.52" x2="51.72" y2="33.43"/></g></g></g></svg>